<svg xmlns="http://www.w3.org/2000/svg" width="202" height="202" viewBox="0 0 202 202" fill="none">
  <path d="M101 0C81.0241 0 61.4968 5.92354 44.8874 17.0216C28.2781 28.1196 15.3327 43.8936 7.68821 62.349C0.0437614 80.8043 -1.95637 101.112 1.94073 120.704C5.83784 140.296 15.4572 158.293 29.5823 172.418C43.7074 186.543 61.7038 196.162 81.2959 200.059C100.888 203.956 121.196 201.956 139.651 194.312C158.106 186.667 173.88 173.722 184.978 157.113C196.076 140.503 202 120.976 202 101C202 74.2131 191.359 48.5234 172.418 29.5822C153.477 10.641 127.787 0 101 0ZM101 189.375C83.5211 189.375 66.4347 184.192 51.9015 174.481C37.3683 164.77 26.0411 150.968 19.3522 134.82C12.6633 118.671 10.9132 100.902 14.3231 83.7589C17.7331 66.6158 26.15 50.8689 38.5095 38.5094C50.8689 26.15 66.6159 17.7331 83.7589 14.3231C100.902 10.9131 118.671 12.6632 134.82 19.3521C150.968 26.041 164.77 37.3683 174.481 51.9015C184.192 66.4347 189.375 83.5211 189.375 101C189.375 124.438 180.064 146.917 163.491 163.491C146.917 180.064 124.439 189.375 101 189.375Z" fill="#D4B076"/>
  <path d="M164.125 63.7556C162.942 62.5798 161.342 61.9199 159.674 61.9199C158.007 61.9199 156.407 62.5798 155.224 63.7556L85.1551 133.509L47.2802 95.6337C46.125 94.3864 44.5216 93.6491 42.8228 93.584C41.1241 93.5189 39.469 94.1313 38.2217 95.2865C36.9745 96.4417 36.2372 98.045 36.1721 99.7438C36.107 101.443 36.7194 103.098 37.8745 104.345L85.1551 151.499L164.125 72.7193C164.716 72.1325 165.186 71.4343 165.506 70.6651C165.827 69.8958 165.992 69.0708 165.992 68.2374C165.992 67.4041 165.827 66.579 165.506 65.8098C165.186 65.0406 164.716 64.3424 164.125 63.7556Z" fill="#D4B076"/>
</svg>